<?xml version="1.0" standalone="no"?><svg xmlns="http://www.w3.org/2000/svg" viewBox="0 0 1440 320"><path fill="#30435A" fill-opacity="1" d="M0,192L12,213.3C24,235,48,277,72,250.7C96,224,120,128,144,117.3C168,107,192,181,216,224C240,267,264,277,288,245.3C312,213,336,139,360,144C384,149,408,235,432,240C456,245,480,171,504,117.3C528,64,552,32,576,64C600,96,624,192,648,202.7C672,213,696,139,720,133.3C744,128,768,192,792,224C816,256,840,256,864,229.3C888,203,912,149,936,149.3C960,149,984,203,1008,186.7C1032,171,1056,85,1080,80C1104,75,1128,149,1152,192C1176,235,1200,245,1224,224C1248,203,1272,149,1296,154.7C1320,160,1344,224,1368,213.3C1392,203,1416,117,1428,74.7L1440,32L1440,320L1428,320C1416,320,1392,320,1368,320C1344,320,1320,320,1296,320C1272,320,1248,320,1224,320C1200,320,1176,320,1152,320C1128,320,1104,320,1080,320C1056,320,1032,320,1008,320C984,320,960,320,936,320C912,320,888,320,864,320C840,320,816,320,792,320C768,320,744,320,720,320C696,320,672,320,648,320C624,320,600,320,576,320C552,320,528,320,504,320C480,320,456,320,432,320C408,320,384,320,360,320C336,320,312,320,288,320C264,320,240,320,216,320C192,320,168,320,144,320C120,320,96,320,72,320C48,320,24,320,12,320L0,320Z"></path></svg>